# xmcd
#
# Track frame offsets:
#	150
#	15589
#	32731
#	51109
#	66440
#	83864
#	100459
#	112996
#	129689
#	144013
#	158909
#	174464
#
# Disc length: 2518 seconds
#
# Revision: 1
# Processed by: cddbd v1.5.2PL0 Copyright (c) Steve Scherf et al.
# Submitted via: audiograbber 1.83.01
#
DISCID=9b09d40c
DTITLE=Meg Pfeiffer - Bullrider
DYEAR=2010
DGENRE=Country
TTITLE0=Use Somebody
TTITLE1=Poker Face
TTITLE2=American Boy
TTITLE3=Bodies
TTITLE4=I Kissed A Girl
TTITLE5=I Will Love You Monday (365)
TTITLE6=Love Is Easy
TTITLE7=4 Minutes
TTITLE8=Someone
TTITLE9=Piece Of Me
TTITLE10=Johnny Goes Bananas
TTITLE11=Maneater
EXTD=
EXTT0=
EXTT1=
EXTT2=
EXTT3=
EXTT4=
EXTT5=
EXTT6=
EXTT7=
EXTT8=
EXTT9=
EXTT10=
EXTT11=
PLAYORDER=
